<?xml version="1.0" encoding="UTF-8" standalone="no"?>
<!DOCTYPE svg PUBLIC "-//W3C//DTD SVG 1.1//EN"
 "http://www.w3.org/Graphics/SVG/1.1/DTD/svg11.dtd">
<!-- Generated by graphviz version 2.38.0 (20140413.2041)
 -->
<!-- Title: %3 Pages: 1 -->
<svg width="1217pt" height="758pt"
 viewBox="0.00 0.00 1217.10 757.95" xmlns="http://www.w3.org/2000/svg" xmlns:xlink="http://www.w3.org/1999/xlink">
<g id="graph0" class="graph" transform="scale(1 1) rotate(0) translate(4 753.953)">
<title>%3</title>
<polygon fill="white" stroke="none" points="-4,4 -4,-753.953 1213.1,-753.953 1213.1,4 -4,4"/>
<!-- 2 -->
<g id="node1" class="node"><title>2</title>
<polygon fill="#ff0100" stroke="#ff0100" points="177.155,-148.988 85.9328,-148.988 85.9328,-94.9961 177.155,-94.9961 177.155,-148.988"/>
<text text-anchor="middle" x="131.544" y="-136.99" font-family="Arial" font-size="10.00" fill="#ffffff">channels:83:next</text>
<text text-anchor="middle" x="131.544" y="-125.491" font-family="Arial" font-size="10.00" fill="#ffffff">99.86%</text>
<text text-anchor="middle" x="131.544" y="-113.992" font-family="Arial" font-size="10.00" fill="#ffffff">(10.88%)</text>
<text text-anchor="middle" x="131.544" y="-102.493" font-family="Arial" font-size="10.00" fill="#ffffff">20004×</text>
</g>
<!-- 2&#45;&gt;2 -->
<g id="edge1" class="edge"><title>2&#45;&gt;2</title>
<path fill="none" stroke="#0ba944" stroke-width="1.64" d="M177.318,-129.404C182.781,-128.057 186.349,-125.586 186.349,-121.992 186.349,-119.971 185.22,-118.305 183.26,-116.994"/>
<polygon fill="#0ba944" stroke="#0ba944" stroke-width="1.64" points="184.09,-114.913 177.318,-114.58 182.404,-119.064 184.09,-114.913"/>
<text text-anchor="middle" x="203.307" y="-125.491" font-family="Arial" font-size="10.00" fill="#0ba944">40.90%</text>
<text text-anchor="middle" x="203.307" y="-113.992" font-family="Arial" font-size="10.00" fill="#0ba944">9999×</text>
</g>
<!-- 34 -->
<g id="node2" class="node"><title>34</title>
<polygon fill="#ff0100" stroke="#ff0100" points="293.938,-53.9941 199.15,-53.9941 199.15,-0.00195298 293.938,-0.00195298 293.938,-53.9941"/>
<text text-anchor="middle" x="246.544" y="-41.9961" font-family="Arial" font-size="10.00" fill="#ffffff">channels:23:send</text>
<text text-anchor="middle" x="246.544" y="-30.4971" font-family="Arial" font-size="10.00" fill="#ffffff">99.95%</text>
<text text-anchor="middle" x="246.544" y="-18.998" font-family="Arial" font-size="10.00" fill="#ffffff">(0.70%)</text>
<text text-anchor="middle" x="246.544" y="-7.49902" font-family="Arial" font-size="10.00" fill="#ffffff">20001×</text>
</g>
<!-- 2&#45;&gt;34 -->
<g id="edge2" class="edge"><title>2&#45;&gt;34</title>
<path fill="none" stroke="#0c7c8f" stroke-width="0.86" d="M163.884,-94.8407C178.337,-83.1529 195.433,-69.3287 210.315,-57.2942"/>
<polygon fill="#0c7c8f" stroke="#0c7c8f" stroke-width="0.86" points="211.484,-58.4198 214.048,-54.2755 209.459,-55.916 211.484,-58.4198"/>
<text text-anchor="middle" x="220.502" y="-77.9941" font-family="Arial" font-size="10.00" fill="#0c7c8f">21.49%</text>
<text text-anchor="middle" x="220.502" y="-66.4951" font-family="Arial" font-size="10.00" fill="#0c7c8f">9999×</text>
</g>
<!-- 3 -->
<g id="node3" class="node"><title>3</title>
<polygon fill="#ff0100" stroke="#ff0100" points="310.576,-369.975 180.512,-369.975 180.512,-315.982 310.576,-315.982 310.576,-369.975"/>
<text text-anchor="middle" x="245.544" y="-357.977" font-family="Arial" font-size="10.00" fill="#ffffff">__init__:57:safe_wrapped</text>
<text text-anchor="middle" x="245.544" y="-346.478" font-family="Arial" font-size="10.00" fill="#ffffff">99.95%</text>
<text text-anchor="middle" x="245.544" y="-334.979" font-family="Arial" font-size="10.00" fill="#ffffff">(18.30%)</text>
<text text-anchor="middle" x="245.544" y="-323.479" font-family="Arial" font-size="10.00" fill="#ffffff">5×</text>
</g>
<!-- 3&#45;&gt;2 -->
<g id="edge3" class="edge"><title>3&#45;&gt;2</title>
<path fill="none" stroke="#e3a904" stroke-width="3.26" d="M188.216,-315.952C162.232,-302.865 135.725,-287.228 128.628,-274.982 108.032,-239.443 113.557,-190.939 121.054,-158.37"/>
<polygon fill="#e3a904" stroke="#e3a904" stroke-width="3.26" points="124.214,-158.711 123.309,-149.219 118.097,-157.204 124.214,-158.711"/>
<text text-anchor="middle" x="146.502" y="-251.483" font-family="Arial" font-size="10.00" fill="#e3a904">81.53%</text>
<text text-anchor="middle" x="146.502" y="-239.984" font-family="Arial" font-size="10.00" fill="#e3a904">9999×</text>
</g>
<!-- 4 -->
<g id="node4" class="node"><title>4</title>
<polygon fill="#ff0100" stroke="#ff0100" points="323.674,-274.98 167.414,-274.98 167.414,-220.988 323.674,-220.988 323.674,-274.98"/>
<text text-anchor="middle" x="245.544" y="-262.982" font-family="Arial" font-size="10.00" fill="#ffffff">producer_consumer:1:consume</text>
<text text-anchor="middle" x="245.544" y="-251.483" font-family="Arial" font-size="10.00" fill="#ffffff">99.87%</text>
<text text-anchor="middle" x="245.544" y="-239.984" font-family="Arial" font-size="10.00" fill="#ffffff">(0.00%)</text>
<text text-anchor="middle" x="245.544" y="-228.485" font-family="Arial" font-size="10.00" fill="#ffffff">3×</text>
</g>
<!-- 3&#45;&gt;4 -->
<g id="edge4" class="edge"><title>3&#45;&gt;4</title>
<path fill="none" stroke="#ff0100" stroke-width="3.99" d="M245.544,-315.579C245.544,-306.173 245.544,-295.409 245.544,-285.317"/>
<polygon fill="#ff0100" stroke="#ff0100" stroke-width="3.99" points="249.044,-285.128 245.544,-275.128 242.044,-285.128 249.044,-285.128"/>
<text text-anchor="middle" x="262.502" y="-298.98" font-family="Arial" font-size="10.00" fill="#ff0100">99.87%</text>
<text text-anchor="middle" x="262.502" y="-287.481" font-family="Arial" font-size="10.00" fill="#ff0100">1×</text>
</g>
<!-- 26 -->
<g id="node5" class="node"><title>26</title>
<polygon fill="#ff0100" stroke="#ff0100" points="411.735,-211.984 259.352,-211.984 259.352,-157.992 411.735,-157.992 411.735,-211.984"/>
<text text-anchor="middle" x="335.544" y="-199.986" font-family="Arial" font-size="10.00" fill="#ffffff">producer_consumer:1:produce</text>
<text text-anchor="middle" x="335.544" y="-188.487" font-family="Arial" font-size="10.00" fill="#ffffff">99.95%</text>
<text text-anchor="middle" x="335.544" y="-176.988" font-family="Arial" font-size="10.00" fill="#ffffff">(0.00%)</text>
<text text-anchor="middle" x="335.544" y="-165.489" font-family="Arial" font-size="10.00" fill="#ffffff">1×</text>
</g>
<!-- 3&#45;&gt;26 -->
<g id="edge5" class="edge"><title>3&#45;&gt;26</title>
<path fill="none" stroke="#ff0100" stroke-width="4" d="M290.825,-315.914C305.355,-305.171 319.909,-291.364 328.544,-274.982 336.982,-258.974 339.179,-239.054 339.073,-222.122"/>
<polygon fill="#ff0100" stroke="#ff0100" stroke-width="4" points="342.568,-221.908 338.744,-212.027 335.571,-222.135 342.568,-221.908"/>
<text text-anchor="middle" x="340.502" y="-298.98" font-family="Arial" font-size="10.00" fill="#ff0100">99.95%</text>
<text text-anchor="middle" x="340.502" y="-287.481" font-family="Arial" font-size="10.00" fill="#ff0100">1×</text>
</g>
<!-- 4&#45;&gt;2 -->
<g id="edge6" class="edge"><title>4&#45;&gt;2</title>
<path fill="none" stroke="#ff0100" stroke-width="3.99" d="M214.583,-220.707C211.495,-217.83 208.458,-214.89 205.628,-211.986 188.866,-194.79 171.617,-174.265 157.985,-157.262"/>
<polygon fill="#ff0100" stroke="#ff0100" stroke-width="3.99" points="160.562,-154.88 151.601,-149.228 155.082,-159.235 160.562,-154.88"/>
<text text-anchor="middle" x="223.502" y="-188.487" font-family="Arial" font-size="10.00" fill="#ff0100">99.86%</text>
<text text-anchor="middle" x="223.502" y="-176.988" font-family="Arial" font-size="10.00" fill="#ff0100">2×</text>
</g>
<!-- 4&#45;&gt;34 -->
<g id="edge7" class="edge"><title>4&#45;&gt;34</title>
<path fill="none" stroke="#ff0100" stroke-width="3.99" d="M245.665,-220.57C245.843,-181.58 246.176,-108.497 246.378,-64.4369"/>
<polygon fill="#ff0100" stroke="#ff0100" stroke-width="3.99" points="249.879,-64.1816 246.424,-54.1657 242.879,-64.1496 249.879,-64.1816"/>
<text text-anchor="middle" x="263.502" y="-125.491" font-family="Arial" font-size="10.00" fill="#ff0100">99.86%</text>
<text text-anchor="middle" x="263.502" y="-113.992" font-family="Arial" font-size="10.00" fill="#ff0100">1×</text>
</g>
<!-- 26&#45;&gt;34 -->
<g id="edge23" class="edge"><title>26&#45;&gt;34</title>
<path fill="none" stroke="#ff0100" stroke-width="4" d="M320.647,-157.879C305.823,-131.896 282.976,-91.8533 266.571,-63.0994"/>
<polygon fill="#ff0100" stroke="#ff0100" stroke-width="4" points="269.485,-61.1437 261.489,-54.1925 263.405,-64.6127 269.485,-61.1437"/>
<text text-anchor="middle" x="332.502" y="-125.491" font-family="Arial" font-size="10.00" fill="#ff0100">99.95%</text>
<text text-anchor="middle" x="332.502" y="-113.992" font-family="Arial" font-size="10.00" fill="#ff0100">1×</text>
</g>
<!-- 7 -->
<g id="node6" class="node"><title>7</title>
<polygon fill="#0d1074" stroke="#0d1074" points="502.61,-559.963 258.478,-559.963 258.478,-505.971 502.61,-505.971 502.61,-559.963"/>
<text text-anchor="middle" x="380.544" y="-547.965" font-family="Arial" font-size="10.00" fill="#ffffff">~:0:&lt;method &#39;popleft&#39; of &#39;collections.deque&#39; objects&gt;</text>
<text text-anchor="middle" x="380.544" y="-536.466" font-family="Arial" font-size="10.00" fill="#ffffff">0.70%</text>
<text text-anchor="middle" x="380.544" y="-524.967" font-family="Arial" font-size="10.00" fill="#ffffff">(0.70%)</text>
<text text-anchor="middle" x="380.544" y="-513.468" font-family="Arial" font-size="10.00" fill="#ffffff">20001×</text>
</g>
<!-- 8 -->
<g id="node7" class="node"><title>8</title>
<polygon fill="#ff0000" stroke="#ff0000" points="711.745,-654.957 559.343,-654.957 559.343,-600.965 711.745,-600.965 711.745,-654.957"/>
<text text-anchor="middle" x="635.544" y="-642.959" font-family="Arial" font-size="10.00" fill="#ffffff">stackless:257:_channel_action</text>
<text text-anchor="middle" x="635.544" y="-631.46" font-family="Arial" font-size="10.00" fill="#ffffff">99.96%</text>
<text text-anchor="middle" x="635.544" y="-619.961" font-family="Arial" font-size="10.00" fill="#ffffff">(15.34%)</text>
<text text-anchor="middle" x="635.544" y="-608.462" font-family="Arial" font-size="10.00" fill="#ffffff">40005×</text>
</g>
<!-- 8&#45;&gt;7 -->
<g id="edge9" class="edge"><title>8&#45;&gt;7</title>
<path fill="none" stroke="#0d1074" stroke-width="0.5" d="M564.173,-600.933C530.202,-588.545 489.589,-573.734 455.205,-561.194"/>
<polygon fill="#0d1074" stroke="#0d1074" stroke-width="0.5" points="455.605,-560.037 451.898,-559.988 454.766,-562.338 455.605,-560.037"/>
<text text-anchor="middle" x="555.368" y="-583.963" font-family="Arial" font-size="10.00" fill="#0d1074">0.70%</text>
<text text-anchor="middle" x="555.368" y="-572.464" font-family="Arial" font-size="10.00" fill="#0d1074">20001×</text>
</g>
<!-- 38 -->
<g id="node8" class="node"><title>38</title>
<polygon fill="#0d0f74" stroke="#0d0f74" points="759.455,-559.963 511.632,-559.963 511.632,-505.971 759.455,-505.971 759.455,-559.963"/>
<text text-anchor="middle" x="635.544" y="-547.965" font-family="Arial" font-size="10.00" fill="#ffffff">~:0:&lt;method &#39;append&#39; of &#39;collections.deque&#39; objects&gt;</text>
<text text-anchor="middle" x="635.544" y="-536.466" font-family="Arial" font-size="10.00" fill="#ffffff">0.61%</text>
<text text-anchor="middle" x="635.544" y="-524.967" font-family="Arial" font-size="10.00" fill="#ffffff">(0.61%)</text>
<text text-anchor="middle" x="635.544" y="-513.468" font-family="Arial" font-size="10.00" fill="#ffffff">20011×</text>
</g>
<!-- 8&#45;&gt;38 -->
<g id="edge8" class="edge"><title>8&#45;&gt;38</title>
<path fill="none" stroke="#0d0f74" stroke-width="0.5" d="M635.544,-600.561C635.544,-589.077 635.544,-575.567 635.544,-563.727"/>
<polygon fill="#0d0f74" stroke="#0d0f74" stroke-width="0.5" points="636.769,-563.611 635.544,-560.111 634.319,-563.611 636.769,-563.611"/>
<text text-anchor="middle" x="652.368" y="-583.963" font-family="Arial" font-size="10.00" fill="#0d0f74">0.61%</text>
<text text-anchor="middle" x="652.368" y="-572.464" font-family="Arial" font-size="10.00" fill="#0d0f74">20004×</text>
</g>
<!-- 42 -->
<g id="node9" class="node"><title>42</title>
<polygon fill="#0d1776" stroke="#0d1776" points="935.235,-559.963 767.852,-559.963 767.852,-505.971 935.235,-505.971 935.235,-559.963"/>
<text text-anchor="middle" x="851.544" y="-547.965" font-family="Arial" font-size="10.00" fill="#ffffff">stackless:120:_scheduler_remove</text>
<text text-anchor="middle" x="851.544" y="-536.466" font-family="Arial" font-size="10.00" fill="#ffffff">2.44%</text>
<text text-anchor="middle" x="851.544" y="-524.967" font-family="Arial" font-size="10.00" fill="#ffffff">(2.44%)</text>
<text text-anchor="middle" x="851.544" y="-513.468" font-family="Arial" font-size="10.00" fill="#ffffff">20004×</text>
</g>
<!-- 8&#45;&gt;42 -->
<g id="edge10" class="edge"><title>8&#45;&gt;42</title>
<path fill="none" stroke="#0d1776" stroke-width="0.5" d="M695.999,-600.933C724.543,-588.644 758.622,-573.972 787.596,-561.498"/>
<polygon fill="#0d1776" stroke="#0d1776" stroke-width="0.5" points="788.373,-562.497 791.103,-559.988 787.404,-560.247 788.373,-562.497"/>
<text text-anchor="middle" x="786.368" y="-583.963" font-family="Arial" font-size="10.00" fill="#0d1776">2.44%</text>
<text text-anchor="middle" x="786.368" y="-572.464" font-family="Arial" font-size="10.00" fill="#0d1776">20004×</text>
</g>
<!-- 19 -->
<g id="node10" class="node"><title>19</title>
<polygon fill="#ff0000" stroke="#ff0000" points="249.438,-559.963 129.65,-559.963 129.65,-505.971 249.438,-505.971 249.438,-559.963"/>
<text text-anchor="middle" x="189.544" y="-547.965" font-family="Arial" font-size="10.00" fill="#ffffff">stackless:501:schedule</text>
<text text-anchor="middle" x="189.544" y="-536.466" font-family="Arial" font-size="10.00" fill="#ffffff">99.95%</text>
<text text-anchor="middle" x="189.544" y="-524.967" font-family="Arial" font-size="10.00" fill="#ffffff">(6.32%)</text>
<text text-anchor="middle" x="189.544" y="-513.468" font-family="Arial" font-size="10.00" fill="#ffffff">40003×</text>
</g>
<!-- 8&#45;&gt;19 -->
<g id="edge11" class="edge"><title>8&#45;&gt;19</title>
<path fill="none" stroke="#ff0000" stroke-width="4" d="M559.088,-618.404C483.549,-608.859 364.863,-590.93 259.22,-561.505"/>
<polygon fill="#ff0000" stroke="#ff0000" stroke-width="4" points="259.941,-558.072 249.366,-558.716 258.034,-564.807 259.941,-558.072"/>
<text text-anchor="middle" x="405.502" y="-583.963" font-family="Arial" font-size="10.00" fill="#ff0000">99.95%</text>
<text text-anchor="middle" x="405.502" y="-572.464" font-family="Arial" font-size="10.00" fill="#ff0000">1×</text>
</g>
<!-- 25 -->
<g id="node11" class="node"><title>25</title>
<polygon fill="#0d1977" stroke="#0d1977" points="1111.26,-559.963 943.828,-559.963 943.828,-505.971 1111.26,-505.971 1111.26,-559.963"/>
<text text-anchor="middle" x="1027.54" y="-547.965" font-family="Arial" font-size="10.00" fill="#ffffff">stackless:126:_scheduler_append</text>
<text text-anchor="middle" x="1027.54" y="-536.466" font-family="Arial" font-size="10.00" fill="#ffffff">3.01%</text>
<text text-anchor="middle" x="1027.54" y="-524.967" font-family="Arial" font-size="10.00" fill="#ffffff">(1.57%)</text>
<text text-anchor="middle" x="1027.54" y="-513.468" font-family="Arial" font-size="10.00" fill="#ffffff">20006×</text>
</g>
<!-- 8&#45;&gt;25 -->
<g id="edge12" class="edge"><title>8&#45;&gt;25</title>
<path fill="none" stroke="#0d1977" stroke-width="0.5" d="M711.888,-612.073C773.641,-599.567 862.656,-580.487 939.544,-559.965 939.804,-559.896 940.064,-559.826 940.324,-559.756"/>
<polygon fill="#0d1977" stroke="#0d1977" stroke-width="0.5" points="940.671,-560.932 943.731,-558.838 940.033,-558.566 940.671,-560.932"/>
<text text-anchor="middle" x="924.368" y="-583.963" font-family="Arial" font-size="10.00" fill="#0d1977">3.01%</text>
<text text-anchor="middle" x="924.368" y="-572.464" font-family="Arial" font-size="10.00" fill="#0d1977">20001×</text>
</g>
<!-- 28 -->
<g id="node12" class="node"><title>28</title>
<polygon fill="#0d1074" stroke="#0d1074" points="1209.15,-559.963 1119.94,-559.963 1119.94,-505.971 1209.15,-505.971 1209.15,-559.963"/>
<text text-anchor="middle" x="1164.54" y="-547.965" font-family="Arial" font-size="10.00" fill="#ffffff">~:0:&lt;isinstance&gt;</text>
<text text-anchor="middle" x="1164.54" y="-536.466" font-family="Arial" font-size="10.00" fill="#ffffff">0.79%</text>
<text text-anchor="middle" x="1164.54" y="-524.967" font-family="Arial" font-size="10.00" fill="#ffffff">(0.79%)</text>
<text text-anchor="middle" x="1164.54" y="-513.468" font-family="Arial" font-size="10.00" fill="#ffffff">40000×</text>
</g>
<!-- 8&#45;&gt;28 -->
<g id="edge13" class="edge"><title>8&#45;&gt;28</title>
<path fill="none" stroke="#0d1074" stroke-width="0.5" d="M711.694,-625.496C808.21,-621.591 978.51,-607.803 1115.54,-559.965 1115.91,-559.838 1116.27,-559.709 1116.64,-559.577"/>
<polygon fill="#0d1074" stroke="#0d1074" stroke-width="0.5" points="1117.09,-560.716 1119.93,-558.334 1116.22,-558.424 1117.09,-560.716"/>
<text text-anchor="middle" x="1107.37" y="-583.963" font-family="Arial" font-size="10.00" fill="#0d1074">0.79%</text>
<text text-anchor="middle" x="1107.37" y="-572.464" font-family="Arial" font-size="10.00" fill="#0d1074">40000×</text>
</g>
<!-- 30 -->
<g id="node13" class="node"><title>30</title>
<polygon fill="#0d267a" stroke="#0d267a" points="149.933,-464.969 25.1547,-464.969 25.1547,-410.977 149.933,-410.977 149.933,-464.969"/>
<text text-anchor="middle" x="87.5439" y="-452.971" font-family="Arial" font-size="10.00" fill="#ffffff">stackless:455:getcurrent</text>
<text text-anchor="middle" x="87.5439" y="-441.472" font-family="Arial" font-size="10.00" fill="#ffffff">5.81%</text>
<text text-anchor="middle" x="87.5439" y="-429.973" font-family="Arial" font-size="10.00" fill="#ffffff">(4.75%)</text>
<text text-anchor="middle" x="87.5439" y="-418.474" font-family="Arial" font-size="10.00" fill="#ffffff">100012×</text>
</g>
<!-- 8&#45;&gt;30 -->
<g id="edge14" class="edge"><title>8&#45;&gt;30</title>
<path fill="none" stroke="#0d1977" stroke-width="0.5" d="M559.304,-623.099C416.929,-615.099 122.219,-594.521 91.8965,-559.965 70.2701,-535.319 73.384,-495.783 79.1171,-468.655"/>
<polygon fill="#0d1977" stroke="#0d1977" stroke-width="0.5" points="80.3482,-468.76 79.9031,-465.078 77.9553,-468.234 80.3482,-468.76"/>
<text text-anchor="middle" x="109.368" y="-536.466" font-family="Arial" font-size="10.00" fill="#0d1977">2.98%</text>
<text text-anchor="middle" x="109.368" y="-524.967" font-family="Arial" font-size="10.00" fill="#0d1977">60009×</text>
</g>
<!-- 19&#45;&gt;30 -->
<g id="edge20" class="edge"><title>19&#45;&gt;30</title>
<path fill="none" stroke="#0d1976" stroke-width="0.5" d="M160.86,-505.815C147.823,-493.929 132.363,-479.834 119.008,-467.658"/>
<polygon fill="#0d1976" stroke="#0d1976" stroke-width="0.5" points="119.778,-466.703 116.366,-465.25 118.127,-468.513 119.778,-466.703"/>
<text text-anchor="middle" x="168.368" y="-488.969" font-family="Arial" font-size="10.00" fill="#0d1976">2.82%</text>
<text text-anchor="middle" x="168.368" y="-477.47" font-family="Arial" font-size="10.00" fill="#0d1976">40003×</text>
</g>
<!-- 18 -->
<g id="node16" class="node"><title>18</title>
<polygon fill="#ff0100" stroke="#ff0100" points="321.174,-464.969 159.914,-464.969 159.914,-410.977 321.174,-410.977 321.174,-464.969"/>
<text text-anchor="middle" x="240.544" y="-452.971" font-family="Arial" font-size="10.00" fill="#ffffff">stackless:141:_scheduler_switch</text>
<text text-anchor="middle" x="240.544" y="-441.472" font-family="Arial" font-size="10.00" fill="#ffffff">99.95%</text>
<text text-anchor="middle" x="240.544" y="-429.973" font-family="Arial" font-size="10.00" fill="#ffffff">(1.84%)</text>
<text text-anchor="middle" x="240.544" y="-418.474" font-family="Arial" font-size="10.00" fill="#ffffff">40003×</text>
</g>
<!-- 19&#45;&gt;18 -->
<g id="edge18" class="edge"><title>19&#45;&gt;18</title>
<path fill="none" stroke="#ff0100" stroke-width="4" d="M204.022,-505.567C209.397,-495.766 215.582,-484.489 221.315,-474.034"/>
<polygon fill="#ff0100" stroke="#ff0100" stroke-width="4" points="224.466,-475.567 226.206,-465.116 218.329,-472.201 224.466,-475.567"/>
<text text-anchor="middle" x="238.502" y="-488.969" font-family="Arial" font-size="10.00" fill="#ff0100">99.95%</text>
<text text-anchor="middle" x="238.502" y="-477.47" font-family="Arial" font-size="10.00" fill="#ff0100">1×</text>
</g>
<!-- 35 -->
<g id="node17" class="node"><title>35</title>
<polygon fill="#0d1174" stroke="#0d1174" points="731.158,-464.969 491.93,-464.969 491.93,-410.977 731.158,-410.977 731.158,-464.969"/>
<text text-anchor="middle" x="611.544" y="-452.971" font-family="Arial" font-size="10.00" fill="#ffffff">~:0:&lt;method &#39;rotate&#39; of &#39;collections.deque&#39; objects&gt;</text>
<text text-anchor="middle" x="611.544" y="-441.472" font-family="Arial" font-size="10.00" fill="#ffffff">0.95%</text>
<text text-anchor="middle" x="611.544" y="-429.973" font-family="Arial" font-size="10.00" fill="#ffffff">(0.95%)</text>
<text text-anchor="middle" x="611.544" y="-418.474" font-family="Arial" font-size="10.00" fill="#ffffff">59997×</text>
</g>
<!-- 19&#45;&gt;35 -->
<g id="edge19" class="edge"><title>19&#45;&gt;35</title>
<path fill="none" stroke="#0d0e73" stroke-width="0.5" d="M249.372,-507.239C250.771,-506.798 252.163,-506.374 253.544,-505.969 330.139,-483.493 418.249,-466.892 487.891,-455.838"/>
<polygon fill="#0d0e73" stroke="#0d0e73" stroke-width="0.5" points="488.345,-457.006 491.611,-455.25 487.963,-454.586 488.345,-457.006"/>
<text text-anchor="middle" x="407.368" y="-488.969" font-family="Arial" font-size="10.00" fill="#0d0e73">0.33%</text>
<text text-anchor="middle" x="407.368" y="-477.47" font-family="Arial" font-size="10.00" fill="#0d0e73">19999×</text>
</g>
<!-- 25&#45;&gt;35 -->
<g id="edge21" class="edge"><title>25&#45;&gt;35</title>
<path fill="none" stroke="#0d0f74" stroke-width="0.5" d="M943.748,-507.032C942.337,-506.67 940.935,-506.316 939.544,-505.969 872.364,-489.217 796.682,-473.548 734.957,-461.582"/>
<polygon fill="#0d0f74" stroke="#0d0f74" stroke-width="0.5" points="734.954,-460.334 731.285,-460.872 734.489,-462.739 734.954,-460.334"/>
<text text-anchor="middle" x="912.368" y="-488.969" font-family="Arial" font-size="10.00" fill="#0d0f74">0.61%</text>
<text text-anchor="middle" x="912.368" y="-477.47" font-family="Arial" font-size="10.00" fill="#0d0f74">39998×</text>
</g>
<!-- 39 -->
<g id="node19" class="node"><title>39</title>
<polygon fill="#0d1074" stroke="#0d1074" points="1157.8,-464.969 897.293,-464.969 897.293,-410.977 1157.8,-410.977 1157.8,-464.969"/>
<text text-anchor="middle" x="1027.54" y="-452.971" font-family="Arial" font-size="10.00" fill="#ffffff">~:0:&lt;method &#39;appendleft&#39; of &#39;collections.deque&#39; objects&gt;</text>
<text text-anchor="middle" x="1027.54" y="-441.472" font-family="Arial" font-size="10.00" fill="#ffffff">0.83%</text>
<text text-anchor="middle" x="1027.54" y="-429.973" font-family="Arial" font-size="10.00" fill="#ffffff">(0.83%)</text>
<text text-anchor="middle" x="1027.54" y="-418.474" font-family="Arial" font-size="10.00" fill="#ffffff">19999×</text>
</g>
<!-- 25&#45;&gt;39 -->
<g id="edge22" class="edge"><title>25&#45;&gt;39</title>
<path fill="none" stroke="#0d1074" stroke-width="0.5" d="M1027.54,-505.567C1027.54,-494.083 1027.54,-480.572 1027.54,-468.733"/>
<polygon fill="#0d1074" stroke="#0d1074" stroke-width="0.5" points="1028.77,-468.616 1027.54,-465.116 1026.32,-468.616 1028.77,-468.616"/>
<text text-anchor="middle" x="1044.37" y="-488.969" font-family="Arial" font-size="10.00" fill="#0d1074">0.83%</text>
<text text-anchor="middle" x="1044.37" y="-477.47" font-family="Arial" font-size="10.00" fill="#0d1074">19999×</text>
</g>
<!-- 40 -->
<g id="node20" class="node"><title>40</title>
<polygon fill="#0d1675" stroke="#0d1675" points="171.132,-369.975 -0.0439679,-369.975 -0.0439679,-315.982 171.132,-315.982 171.132,-369.975"/>
<text text-anchor="middle" x="85.5439" y="-357.977" font-family="Arial" font-size="10.00" fill="#ffffff">stackless:16:_coroutine_getcurrent</text>
<text text-anchor="middle" x="85.5439" y="-346.478" font-family="Arial" font-size="10.00" fill="#ffffff">2.11%</text>
<text text-anchor="middle" x="85.5439" y="-334.979" font-family="Arial" font-size="10.00" fill="#ffffff">(2.11%)</text>
<text text-anchor="middle" x="85.5439" y="-323.479" font-family="Arial" font-size="10.00" fill="#ffffff">140030×</text>
</g>
<!-- 30&#45;&gt;40 -->
<g id="edge24" class="edge"><title>30&#45;&gt;40</title>
<path fill="none" stroke="#0d1174" stroke-width="0.5" d="M86.9762,-410.573C86.7292,-399.088 86.4386,-385.578 86.184,-373.739"/>
<polygon fill="#0d1174" stroke="#0d1174" stroke-width="0.5" points="87.4063,-373.595 86.1062,-370.122 84.9568,-373.648 87.4063,-373.595"/>
<text text-anchor="middle" x="107.148" y="-393.975" font-family="Arial" font-size="10.00" fill="#0d1174">1.05%</text>
<text text-anchor="middle" x="107.148" y="-382.476" font-family="Arial" font-size="10.00" fill="#0d1174">100012×</text>
</g>
<!-- 16 -->
<g id="node14" class="node"><title>16</title>
<polygon fill="#ff0000" stroke="#ff0000" points="634.145,-749.951 522.943,-749.951 522.943,-695.959 634.145,-695.959 634.145,-749.951"/>
<text text-anchor="middle" x="578.544" y="-737.953" font-family="Arial" font-size="10.00" fill="#ffffff">stackless:314:receive</text>
<text text-anchor="middle" x="578.544" y="-726.454" font-family="Arial" font-size="10.00" fill="#ffffff">99.96%</text>
<text text-anchor="middle" x="578.544" y="-714.955" font-family="Arial" font-size="10.00" fill="#ffffff">(0.72%)</text>
<text text-anchor="middle" x="578.544" y="-703.456" font-family="Arial" font-size="10.00" fill="#ffffff">20004×</text>
</g>
<!-- 16&#45;&gt;8 -->
<g id="edge15" class="edge"><title>16&#45;&gt;8</title>
<path fill="none" stroke="#ff0000" stroke-width="4" d="M594.725,-695.555C600.794,-685.655 607.785,-674.249 614.247,-663.706"/>
<polygon fill="#ff0000" stroke="#ff0000" stroke-width="4" points="617.277,-665.46 619.519,-655.105 611.309,-661.802 617.277,-665.46"/>
<text text-anchor="middle" x="631.502" y="-678.957" font-family="Arial" font-size="10.00" fill="#ff0000">99.96%</text>
<text text-anchor="middle" x="631.502" y="-667.458" font-family="Arial" font-size="10.00" fill="#ff0000">1×</text>
</g>
<!-- 17 -->
<g id="node15" class="node"><title>17</title>
<polygon fill="#ff0100" stroke="#ff0100" points="744.093,-749.951 642.995,-749.951 642.995,-695.959 744.093,-695.959 744.093,-749.951"/>
<text text-anchor="middle" x="693.544" y="-737.953" font-family="Arial" font-size="10.00" fill="#ffffff">stackless:332:send</text>
<text text-anchor="middle" x="693.544" y="-726.454" font-family="Arial" font-size="10.00" fill="#ffffff">99.95%</text>
<text text-anchor="middle" x="693.544" y="-714.955" font-family="Arial" font-size="10.00" fill="#ffffff">(3.05%)</text>
<text text-anchor="middle" x="693.544" y="-703.456" font-family="Arial" font-size="10.00" fill="#ffffff">20001×</text>
</g>
<!-- 17&#45;&gt;8 -->
<g id="edge16" class="edge"><title>17&#45;&gt;8</title>
<path fill="none" stroke="#ff0100" stroke-width="4" d="M677.079,-695.555C670.904,-685.655 663.79,-674.249 657.214,-663.706"/>
<polygon fill="#ff0100" stroke="#ff0100" stroke-width="4" points="660.112,-661.737 651.85,-655.105 654.172,-665.442 660.112,-661.737"/>
<text text-anchor="middle" x="688.502" y="-678.957" font-family="Arial" font-size="10.00" fill="#ff0100">99.95%</text>
<text text-anchor="middle" x="688.502" y="-667.458" font-family="Arial" font-size="10.00" fill="#ff0100">1×</text>
</g>
<!-- 18&#45;&gt;3 -->
<g id="edge17" class="edge"><title>18&#45;&gt;3</title>
<path fill="none" stroke="#ff0100" stroke-width="4" d="M241.963,-410.573C242.469,-401.168 243.048,-390.404 243.59,-380.311"/>
<polygon fill="#ff0100" stroke="#ff0100" stroke-width="4" points="247.096,-380.296 244.138,-370.122 240.106,-379.92 247.096,-380.296"/>
<text text-anchor="middle" x="261.502" y="-393.975" font-family="Arial" font-size="10.00" fill="#ff0100">99.95%</text>
<text text-anchor="middle" x="261.502" y="-382.476" font-family="Arial" font-size="10.00" fill="#ff0100">1×</text>
</g>
<!-- 21 -->
<g id="node18" class="node"><title>21</title>
<polygon fill="#ff0100" stroke="#ff0100" points="858.062,-749.951 753.026,-749.951 753.026,-695.959 858.062,-695.959 858.062,-749.951"/>
<text text-anchor="middle" x="805.544" y="-737.953" font-family="Arial" font-size="10.00" fill="#ffffff">channels:122:_send</text>
<text text-anchor="middle" x="805.544" y="-726.454" font-family="Arial" font-size="10.00" fill="#ffffff">99.95%</text>
<text text-anchor="middle" x="805.544" y="-714.955" font-family="Arial" font-size="10.00" fill="#ffffff">(10.98%)</text>
<text text-anchor="middle" x="805.544" y="-703.456" font-family="Arial" font-size="10.00" fill="#ffffff">20001×</text>
</g>
<!-- 32 -->
<g id="node21" class="node"><title>32</title>
<polygon fill="#ff0000" stroke="#ff0000" points="969.768,-749.951 867.32,-749.951 867.32,-695.959 969.768,-695.959 969.768,-749.951"/>
<text text-anchor="middle" x="918.544" y="-737.953" font-family="Arial" font-size="10.00" fill="#ffffff">channels:137:_recv</text>
<text text-anchor="middle" x="918.544" y="-726.454" font-family="Arial" font-size="10.00" fill="#ffffff">99.96%</text>
<text text-anchor="middle" x="918.544" y="-714.955" font-family="Arial" font-size="10.00" fill="#ffffff">(3.07%)</text>
<text text-anchor="middle" x="918.544" y="-703.456" font-family="Arial" font-size="10.00" fill="#ffffff">20004×</text>
</g>
<!-- 33 -->
<g id="node22" class="node"><title>33</title>
<polygon fill="#ff0000" stroke="#ff0000" points="1070.15,-749.951 978.942,-749.951 978.942,-695.959 1070.15,-695.959 1070.15,-749.951"/>
<text text-anchor="middle" x="1024.54" y="-737.953" font-family="Arial" font-size="10.00" fill="#ffffff">channels:42:recv</text>
<text text-anchor="middle" x="1024.54" y="-726.454" font-family="Arial" font-size="10.00" fill="#ffffff">99.96%</text>
<text text-anchor="middle" x="1024.54" y="-714.955" font-family="Arial" font-size="10.00" fill="#ffffff">(4.38%)</text>
<text text-anchor="middle" x="1024.54" y="-703.456" font-family="Arial" font-size="10.00" fill="#ffffff">20004×</text>
</g>
</g>
</svg>
